<?xml version="1.0"?>
<svg xmlns="http://www.w3.org/2000/svg" xmlns:xlink="http://www.w3.org/1999/xlink" xmlns:svgjs="http://svgjs.com/svgjs" version="1.1" width="512" height="512" x="0" y="0" viewBox="0 0 512.014 512.014" style="enable-background:new 0 0 512 512" xml:space="preserve" class=""><g>
<g xmlns="http://www.w3.org/2000/svg">
	<g>
		<path d="M467.534,428.903c28.8-30.944,44.48-69.088,44.48-108.896c0-49.792-24.672-94.72-64.064-126.752    c-0.8,114.112-108.064,206.752-239.936,206.752H118.99c34.496,56.896,104.416,96,185.024,96h192c6.464,0,12.32-3.904,14.784-9.888    c2.464-5.984,1.088-12.864-3.456-17.44L467.534,428.903z" fill="#ffffff" data-original="#000000" style="" class=""/>
	</g>
</g>
<g xmlns="http://www.w3.org/2000/svg">
	<g>
		<path d="M208.014,16.007c-114.688,0-208,78.944-208,176c0,39.808,15.68,77.92,44.48,108.896L4.686,340.711    c-4.576,4.576-5.952,11.456-3.456,17.44c2.464,5.952,8.32,9.856,14.784,9.856h192c114.688,0,208-78.944,208-176    S322.702,16.007,208.014,16.007z M240.014,240.007h-128c-8.832,0-16-7.168-16-16c0-8.832,7.168-16,16-16h128    c8.832,0,16,7.168,16,16C256.014,232.839,248.846,240.007,240.014,240.007z M304.014,176.007h-192c-8.832,0-16-7.168-16-16    c0-8.832,7.168-16,16-16h192c8.832,0,16,7.168,16,16C320.014,168.839,312.846,176.007,304.014,176.007z" fill="#ffffff" data-original="#000000" style="" class=""/>
	</g>
</g>
<g xmlns="http://www.w3.org/2000/svg">
</g>
<g xmlns="http://www.w3.org/2000/svg">
</g>
<g xmlns="http://www.w3.org/2000/svg">
</g>
<g xmlns="http://www.w3.org/2000/svg">
</g>
<g xmlns="http://www.w3.org/2000/svg">
</g>
<g xmlns="http://www.w3.org/2000/svg">
</g>
<g xmlns="http://www.w3.org/2000/svg">
</g>
<g xmlns="http://www.w3.org/2000/svg">
</g>
<g xmlns="http://www.w3.org/2000/svg">
</g>
<g xmlns="http://www.w3.org/2000/svg">
</g>
<g xmlns="http://www.w3.org/2000/svg">
</g>
<g xmlns="http://www.w3.org/2000/svg">
</g>
<g xmlns="http://www.w3.org/2000/svg">
</g>
<g xmlns="http://www.w3.org/2000/svg">
</g>
<g xmlns="http://www.w3.org/2000/svg">
</g>
</g></svg>
