<?xml version="1.0"?>
<svg xmlns="http://www.w3.org/2000/svg" xmlns:xlink="http://www.w3.org/1999/xlink" xmlns:svgjs="http://svgjs.com/svgjs" version="1.1" width="512" height="512" x="0" y="0" viewBox="0 0 16 16" style="enable-background:new 0 0 512 512" xml:space="preserve"><g>
<path xmlns="http://www.w3.org/2000/svg" fill="#ffffff" d="M8 10v0c-1.7 0-3-1.3-3-3v-4c0-1.6 1.3-3 3-3v0c1.6 0 3 1.3 3 3v4c0 1.6-1.4 3-3 3z" data-original="#444444" style=""/>
<path xmlns="http://www.w3.org/2000/svg" fill="#ffffff" d="M12 5v2.5c0 1.9-1.8 3.5-3.8 3.5h-0.4c-2 0-3.8-1.6-3.8-3.5v-2.5c-0.6 0-1 0.4-1 1v1.5c0 2.2 1.8 4.1 4 4.4v2.1c-3 0-2.5 2-2.5 2h7c0 0 0.5-2-2.5-2v-2.1c2.2-0.4 4-2.2 4-4.4v-1.5c0-0.6-0.4-1-1-1z" data-original="#444444" style=""/>
</g></svg>
